M48
;Layer_Color=9474304
;FILE_FORMAT=2:5
INCH,LZ
;TYPE=PLATED
T1F00S00C0.01300
T2F00S00C0.02756
T3F00S00C0.03543
T4F00S00C0.03937
%
T01
X02836Y00206
X02845Y00585
Y0067
X0255Y0068
X02485
X02406Y00691
X0233Y0067
X02273Y00643
X02218Y00605
X0205Y00625
X019625Y005175
X01912Y00435
X0184Y00449
X01825Y00415
X0183Y00375
X0179Y0036
X017856Y0029545
X0172Y00305
X01756Y00231
X01674Y00155
X01636Y00131
X01592Y00414
X016Y005
X01554
X01641Y00461
X01676Y00536
X01671Y00601
X01716Y00586
Y00661
X017825Y0068561
X01791Y00606
X01846Y00651
X0175Y00498
X01707Y00412
X01441Y00456
X0144Y00535
X01376Y00387
X0131
X01241Y00361
Y00451
X01993Y00345
X01954Y0024
Y00143
X02216Y00191
X02281Y00226
X02335Y0025
X02361Y00196
X02375Y00135
X02301Y00156
X02306Y00321
X02371Y00331
X02386Y00386
X02436Y00271
X02486Y00311
X02758Y00324
X02765Y0023
X02771Y00161
X0268Y0041
X02635Y0046
X0259Y00505
X02176Y00401
X01191Y00406
X01151Y00356
X01056Y00376
X00991Y00406
X00946Y00361
X00821Y00401
X00711
X00686Y00311
X00681Y00251
X00616Y00276
X00601Y00211
X00506Y00251
X00424Y00235
X00426Y00286
X00347Y00284
X00316Y00201
X00301Y00131
X00231Y00151
X00251Y00236
X00236Y00418
X0028637Y00458
X0032Y00535
X0029Y0058
X0034Y00595
X00344Y00665
X00301Y00664
X00201Y00661
X00251Y00606
X00066Y00576
X0007Y00443
Y0036
X00124Y00324
X0007Y0026
X00156Y00101
X00491Y00146
X00501Y00362
X00551
X00791Y00316
X00781Y00226
X00805Y00635
X0086
X00931Y00626
X0093Y00565
X01005Y005
X01085
X01135Y00545
X0118Y0059
X01111Y00631
X01046Y00596
X01084Y00814
X00996Y00819
X00931Y00826
X00834Y00861
X0074Y0086
X0069Y0083
Y00781
X00733
X00808Y00711
X00853
X01146Y00781
X00645Y0087
X00586Y00871
X00451Y00861
X00386Y00851
X00286Y00861
X00191Y00846
X01226Y00781
X01316Y00771
X01648Y00864
X01716Y00799
X01804Y00891
X02035Y0087
X0216Y0073
X02235Y0075
X0232Y0074
X0246Y00785
X02545Y0082
X0282Y00845
X02845Y00765
T02
X02299Y00387
X0249191
T03
X028Y0005
X029
X027
X026
X025
X024
X023
X022
X021
X02
X019
X018
X017
X016
X015
X014
X013
X012
X011
X01
X009
X008
X007
X006
X005
X004
X003
X002
X001
X0011Y00675
X00912Y00289
X01012
X01112
X011Y0095
X01
X009
X008
X007
X006
X005
X004
X003
X002
X001
X0011Y00775
X012Y0095
X013
X014
X015
X016
X017
X018
X019
X02
X021
X022
X023
X024
X025
X026
X027
X028
X029
T04
X02647Y0063
X02747
Y0073
X02647
M30
