G04*
G04 #@! TF.GenerationSoftware,Altium Limited,Altium Designer,19.1.9 (167)*
G04*
G04 Layer_Color=32896*
%FSLAX25Y25*%
%MOIN*%
G70*
G01*
G75*
%ADD73C,0.00800*%
D73*
X12436Y84624D02*
Y82000D01*
X10468D01*
X11124Y83312D01*
Y83968D01*
X10468Y84624D01*
X9156D01*
X8500Y83968D01*
Y82656D01*
X9156Y82000D01*
X12436Y85936D02*
X9812D01*
X8500Y87248D01*
X9812Y88560D01*
X12436D01*
X22498Y80832D02*
Y77500D01*
X19999D01*
X20832Y79166D01*
Y79999D01*
X19999Y80832D01*
X18333D01*
X17500Y79999D01*
Y78333D01*
X18333Y77500D01*
X22498Y82498D02*
X19166D01*
X17500Y84165D01*
X19166Y85831D01*
X22498D01*
X31665Y70000D02*
X32498Y70833D01*
Y72499D01*
X31665Y73332D01*
X30832D01*
X29999Y72499D01*
Y71666D01*
Y72499D01*
X29166Y73332D01*
X28333D01*
X27500Y72499D01*
Y70833D01*
X28333Y70000D01*
X27500Y74998D02*
X28333D01*
Y75831D01*
X27500D01*
Y74998D01*
X31665Y79164D02*
X32498Y79997D01*
Y81663D01*
X31665Y82496D01*
X30832D01*
X29999Y81663D01*
Y80830D01*
Y81663D01*
X29166Y82496D01*
X28333D01*
X27500Y81663D01*
Y79997D01*
X28333Y79164D01*
X32498Y84162D02*
X29166D01*
X27500Y85828D01*
X29166Y87494D01*
X32498D01*
X41665Y70000D02*
X42498Y70833D01*
Y72499D01*
X41665Y73332D01*
X40832D01*
X39999Y72499D01*
Y71666D01*
Y72499D01*
X39166Y73332D01*
X38333D01*
X37500Y72499D01*
Y70833D01*
X38333Y70000D01*
X37500Y74998D02*
X38333D01*
Y75831D01*
X37500D01*
Y74998D01*
X41665Y79164D02*
X42498Y79997D01*
Y81663D01*
X41665Y82496D01*
X40832D01*
X39999Y81663D01*
Y80830D01*
Y81663D01*
X39166Y82496D01*
X38333D01*
X37500Y81663D01*
Y79997D01*
X38333Y79164D01*
X42498Y84162D02*
X39166D01*
X37500Y85828D01*
X39166Y87494D01*
X42498D01*
X61665Y75832D02*
X62498Y74999D01*
Y73333D01*
X61665Y72500D01*
X58333D01*
X57500Y73333D01*
Y74999D01*
X58333Y75832D01*
X59999D01*
Y74166D01*
X57500Y77498D02*
X62498D01*
X57500Y80831D01*
X62498D01*
Y82497D02*
X57500D01*
Y84996D01*
X58333Y85829D01*
X61665D01*
X62498Y84996D01*
Y82497D01*
X51665Y70000D02*
X52498Y70833D01*
Y72499D01*
X51665Y73332D01*
X50832D01*
X49999Y72499D01*
Y71666D01*
Y72499D01*
X49166Y73332D01*
X48333D01*
X47500Y72499D01*
Y70833D01*
X48333Y70000D01*
X47500Y74998D02*
X48333D01*
Y75831D01*
X47500D01*
Y74998D01*
X51665Y79164D02*
X52498Y79997D01*
Y81663D01*
X51665Y82496D01*
X50832D01*
X49999Y81663D01*
Y80830D01*
Y81663D01*
X49166Y82496D01*
X48333D01*
X47500Y81663D01*
Y79997D01*
X48333Y79164D01*
X52498Y84162D02*
X49166D01*
X47500Y85828D01*
X49166Y87494D01*
X52498D01*
X157500Y70000D02*
X162498D01*
Y72499D01*
X161665Y73332D01*
X159999D01*
X159166Y72499D01*
Y70000D01*
X162498Y74998D02*
X157500D01*
Y77498D01*
X158333Y78331D01*
X159166D01*
X159999Y77498D01*
Y74998D01*
Y77498D01*
X160832Y78331D01*
X161665D01*
X162498Y77498D01*
Y74998D01*
X157500Y79997D02*
Y81663D01*
Y80830D01*
X162498D01*
X161665Y79997D01*
X157500Y87494D02*
Y84162D01*
X160832Y87494D01*
X161665D01*
X162498Y86661D01*
Y84995D01*
X161665Y84162D01*
X147500Y70000D02*
X152498D01*
Y72499D01*
X151665Y73332D01*
X149999D01*
X149166Y72499D01*
Y70000D01*
X152498Y74998D02*
X147500D01*
Y77498D01*
X148333Y78331D01*
X149166D01*
X149999Y77498D01*
Y74998D01*
Y77498D01*
X150832Y78331D01*
X151665D01*
X152498Y77498D01*
Y74998D01*
X147500Y79997D02*
Y81663D01*
Y80830D01*
X152498D01*
X151665Y79997D01*
Y84162D02*
X152498Y84995D01*
Y86661D01*
X151665Y87494D01*
X150832D01*
X149999Y86661D01*
Y85828D01*
Y86661D01*
X149166Y87494D01*
X148333D01*
X147500Y86661D01*
Y84995D01*
X148333Y84162D01*
X117500Y72500D02*
X122498D01*
Y74999D01*
X121665Y75832D01*
X119999D01*
X119166Y74999D01*
Y72500D01*
X121665Y80831D02*
X122498Y79998D01*
Y78331D01*
X121665Y77498D01*
X118333D01*
X117500Y78331D01*
Y79998D01*
X118333Y80831D01*
X122498Y85829D02*
X121665Y84163D01*
X119999Y82497D01*
X118333D01*
X117500Y83330D01*
Y84996D01*
X118333Y85829D01*
X119166D01*
X119999Y84996D01*
Y82497D01*
X137500Y70000D02*
X142498D01*
Y72499D01*
X141665Y73332D01*
X139999D01*
X139166Y72499D01*
Y70000D01*
X142498Y74998D02*
X137500D01*
Y77498D01*
X138333Y78331D01*
X139166D01*
X139999Y77498D01*
Y74998D01*
Y77498D01*
X140832Y78331D01*
X141665D01*
X142498Y77498D01*
Y74998D01*
X137500Y79997D02*
Y81663D01*
Y80830D01*
X142498D01*
X141665Y79997D01*
X137500Y86661D02*
X142498D01*
X139999Y84162D01*
Y87494D01*
X127500Y70000D02*
X132498D01*
Y72499D01*
X131665Y73332D01*
X129999D01*
X129166Y72499D01*
Y70000D01*
X132498Y74998D02*
X127500D01*
Y77498D01*
X128333Y78331D01*
X129166D01*
X129999Y77498D01*
Y74998D01*
Y77498D01*
X130832Y78331D01*
X131665D01*
X132498Y77498D01*
Y74998D01*
X127500Y79997D02*
Y81663D01*
Y80830D01*
X132498D01*
X131665Y79997D01*
X132498Y87494D02*
Y84162D01*
X129999D01*
X130832Y85828D01*
Y86661D01*
X129999Y87494D01*
X128333D01*
X127500Y86661D01*
Y84995D01*
X128333Y84162D01*
X97500Y72500D02*
X102498D01*
Y74999D01*
X101665Y75832D01*
X99999D01*
X99166Y74999D01*
Y72500D01*
X101665Y80831D02*
X102498Y79998D01*
Y78331D01*
X101665Y77498D01*
X98333D01*
X97500Y78331D01*
Y79998D01*
X98333Y80831D01*
X101665Y82497D02*
X102498Y83330D01*
Y84996D01*
X101665Y85829D01*
X100832D01*
X99999Y84996D01*
X99166Y85829D01*
X98333D01*
X97500Y84996D01*
Y83330D01*
X98333Y82497D01*
X99166D01*
X99999Y83330D01*
X100832Y82497D01*
X101665D01*
X99999Y83330D02*
Y84996D01*
X77500Y72500D02*
X82498D01*
Y74999D01*
X81665Y75832D01*
X79999D01*
X79166Y74999D01*
Y72500D01*
X77500Y77498D02*
X80832D01*
X82498Y79164D01*
X80832Y80831D01*
X77500D01*
X79999D01*
Y77498D01*
X81665Y82497D02*
X82498Y83330D01*
Y84996D01*
X81665Y85829D01*
X80832D01*
X79999Y84996D01*
X79166Y85829D01*
X78333D01*
X77500Y84996D01*
Y83330D01*
X78333Y82497D01*
X79166D01*
X79999Y83330D01*
X80832Y82497D01*
X81665D01*
X79999Y83330D02*
Y84996D01*
X87500Y72500D02*
X92498D01*
Y74999D01*
X91665Y75832D01*
X89999D01*
X89166Y74999D01*
Y72500D01*
X91665Y80831D02*
X92498Y79998D01*
Y78331D01*
X91665Y77498D01*
X88333D01*
X87500Y78331D01*
Y79998D01*
X88333Y80831D01*
Y82497D02*
X87500Y83330D01*
Y84996D01*
X88333Y85829D01*
X91665D01*
X92498Y84996D01*
Y83330D01*
X91665Y82497D01*
X90832D01*
X89999Y83330D01*
Y85829D01*
X67500Y70000D02*
X72498D01*
Y72499D01*
X71665Y73332D01*
X69999D01*
X69166Y72499D01*
Y70000D01*
X67500Y74998D02*
X70832D01*
X72498Y76665D01*
X70832Y78331D01*
X67500D01*
X69999D01*
Y74998D01*
X67500Y79997D02*
Y81663D01*
Y80830D01*
X72498D01*
X71665Y79997D01*
Y84162D02*
X72498Y84995D01*
Y86661D01*
X71665Y87494D01*
X70832D01*
X69999Y86661D01*
Y85828D01*
Y86661D01*
X69166Y87494D01*
X68333D01*
X67500Y86661D01*
Y84995D01*
X68333Y84162D01*
X11665Y15832D02*
X12498Y14999D01*
Y13333D01*
X11665Y12500D01*
X8333D01*
X7500Y13333D01*
Y14999D01*
X8333Y15832D01*
X9999D01*
Y14166D01*
X7500Y17498D02*
X12498D01*
X7500Y20831D01*
X12498D01*
Y22497D02*
X7500D01*
Y24996D01*
X8333Y25829D01*
X11665D01*
X12498Y24996D01*
Y22497D01*
X21665Y15832D02*
X22498Y14999D01*
Y13333D01*
X21665Y12500D01*
X18333D01*
X17500Y13333D01*
Y14999D01*
X18333Y15832D01*
X19999D01*
Y14166D01*
X17500Y17498D02*
X22498D01*
X17500Y20831D01*
X22498D01*
Y22497D02*
X17500D01*
Y24996D01*
X18333Y25829D01*
X21665D01*
X22498Y24996D01*
Y22497D01*
X217500Y12500D02*
X222498D01*
Y14999D01*
X221665Y15832D01*
X219999D01*
X219166Y14999D01*
Y12500D01*
X221665Y20831D02*
X222498Y19998D01*
Y18331D01*
X221665Y17498D01*
X218333D01*
X217500Y18331D01*
Y19998D01*
X218333Y20831D01*
X221665Y22497D02*
X222498Y23330D01*
Y24996D01*
X221665Y25829D01*
X220832D01*
X219999Y24996D01*
Y24163D01*
Y24996D01*
X219166Y25829D01*
X218333D01*
X217500Y24996D01*
Y23330D01*
X218333Y22497D01*
X197500Y12500D02*
X202498D01*
Y14999D01*
X201665Y15832D01*
X199999D01*
X199166Y14999D01*
Y12500D01*
Y14166D02*
X197500Y15832D01*
X202498Y20831D02*
Y17498D01*
X197500D01*
Y20831D01*
X199999Y17498D02*
Y19164D01*
X201665Y25829D02*
X202498Y24996D01*
Y23330D01*
X201665Y22497D01*
X200832D01*
X199999Y23330D01*
Y24996D01*
X199166Y25829D01*
X198333D01*
X197500Y24996D01*
Y23330D01*
X198333Y22497D01*
X202498Y30827D02*
Y27495D01*
X197500D01*
Y30827D01*
X199999Y27495D02*
Y29161D01*
X202498Y32493D02*
Y35826D01*
Y34160D01*
X197500D01*
X147500Y12500D02*
X152498D01*
Y14999D01*
X151665Y15832D01*
X149999D01*
X149166Y14999D01*
Y12500D01*
X152498Y17498D02*
X147500D01*
Y19998D01*
X148333Y20831D01*
X149166D01*
X149999Y19998D01*
Y17498D01*
Y19998D01*
X150832Y20831D01*
X151665D01*
X152498Y19998D01*
Y17498D01*
X151665Y22497D02*
X152498Y23330D01*
Y24996D01*
X151665Y25829D01*
X150832D01*
X149999Y24996D01*
X149166Y25829D01*
X148333D01*
X147500Y24996D01*
Y23330D01*
X148333Y22497D01*
X149166D01*
X149999Y23330D01*
X150832Y22497D01*
X151665D01*
X149999Y23330D02*
Y24996D01*
X107500Y72500D02*
X112498D01*
Y74999D01*
X111665Y75832D01*
X109999D01*
X109166Y74999D01*
Y72500D01*
X111665Y80831D02*
X112498Y79998D01*
Y78331D01*
X111665Y77498D01*
X108333D01*
X107500Y78331D01*
Y79998D01*
X108333Y80831D01*
X112498Y82497D02*
Y85829D01*
X111665D01*
X108333Y82497D01*
X107500D01*
X167500Y70000D02*
X172498D01*
Y72499D01*
X171665Y73332D01*
X169999D01*
X169166Y72499D01*
Y70000D01*
X172498Y74998D02*
X167500D01*
Y77498D01*
X168333Y78331D01*
X169166D01*
X169999Y77498D01*
Y74998D01*
Y77498D01*
X170832Y78331D01*
X171665D01*
X172498Y77498D01*
Y74998D01*
X167500Y79997D02*
Y81663D01*
Y80830D01*
X172498D01*
X171665Y79997D01*
X167500Y84162D02*
Y85828D01*
Y84995D01*
X172498D01*
X171665Y84162D01*
X237500Y72500D02*
X242498D01*
Y74999D01*
X241665Y75832D01*
X239999D01*
X239166Y74999D01*
Y72500D01*
X237500Y77498D02*
X240832D01*
X242498Y79164D01*
X240832Y80831D01*
X237500D01*
X239999D01*
Y77498D01*
X242498Y82497D02*
Y85829D01*
X241665D01*
X238333Y82497D01*
X237500D01*
X177500Y70000D02*
X182498D01*
Y72499D01*
X181665Y73332D01*
X179999D01*
X179166Y72499D01*
Y70000D01*
X182498Y74998D02*
X177500D01*
Y77498D01*
X178333Y78331D01*
X179166D01*
X179999Y77498D01*
Y74998D01*
Y77498D01*
X180832Y78331D01*
X181665D01*
X182498Y77498D01*
Y74998D01*
X177500Y79997D02*
Y81663D01*
Y80830D01*
X182498D01*
X181665Y79997D01*
Y84162D02*
X182498Y84995D01*
Y86661D01*
X181665Y87494D01*
X178333D01*
X177500Y86661D01*
Y84995D01*
X178333Y84162D01*
X181665D01*
X247500Y72500D02*
X252498D01*
Y74999D01*
X251665Y75832D01*
X249999D01*
X249166Y74999D01*
Y72500D01*
X247500Y77498D02*
X250832D01*
X252498Y79164D01*
X250832Y80831D01*
X247500D01*
X249999D01*
Y77498D01*
X252498Y85829D02*
X251665Y84163D01*
X249999Y82497D01*
X248333D01*
X247500Y83330D01*
Y84996D01*
X248333Y85829D01*
X249166D01*
X249999Y84996D01*
Y82497D01*
X187500Y72500D02*
X192498D01*
Y74999D01*
X191665Y75832D01*
X189999D01*
X189166Y74999D01*
Y72500D01*
X192498Y77498D02*
X187500D01*
Y79998D01*
X188333Y80831D01*
X189166D01*
X189999Y79998D01*
Y77498D01*
Y79998D01*
X190832Y80831D01*
X191665D01*
X192498Y79998D01*
Y77498D01*
X187500Y85829D02*
Y82497D01*
X190832Y85829D01*
X191665D01*
X192498Y84996D01*
Y83330D01*
X191665Y82497D01*
X217500Y72500D02*
X222498D01*
Y74999D01*
X221665Y75832D01*
X219999D01*
X219166Y74999D01*
Y72500D01*
X221665Y80831D02*
X222498Y79998D01*
Y78331D01*
X221665Y77498D01*
X218333D01*
X217500Y78331D01*
Y79998D01*
X218333Y80831D01*
X222498Y85829D02*
Y82497D01*
X219999D01*
X220832Y84163D01*
Y84996D01*
X219999Y85829D01*
X218333D01*
X217500Y84996D01*
Y83330D01*
X218333Y82497D01*
X257500Y77500D02*
X261436D01*
Y79468D01*
X260780Y80124D01*
X259468D01*
X258812Y79468D01*
Y77500D01*
X257500Y81436D02*
X260124D01*
X261436Y82748D01*
X260124Y84060D01*
X257500D01*
X259468D01*
Y81436D01*
X261436Y87995D02*
Y85372D01*
X259468D01*
X260124Y86683D01*
Y87339D01*
X259468Y87995D01*
X258156D01*
X257500Y87339D01*
Y86027D01*
X258156Y85372D01*
X197500Y72500D02*
X202498D01*
Y74999D01*
X201665Y75832D01*
X199999D01*
X199166Y74999D01*
Y72500D01*
X202498Y77498D02*
X197500D01*
Y79998D01*
X198333Y80831D01*
X199166D01*
X199999Y79998D01*
Y77498D01*
Y79998D01*
X200832Y80831D01*
X201665D01*
X202498Y79998D01*
Y77498D01*
X197500Y82497D02*
Y84163D01*
Y83330D01*
X202498D01*
X201665Y82497D01*
X227500Y72500D02*
X232498D01*
Y74999D01*
X231665Y75832D01*
X229999D01*
X229166Y74999D01*
Y72500D01*
X231665Y80831D02*
X232498Y79998D01*
Y78331D01*
X231665Y77498D01*
X228333D01*
X227500Y78331D01*
Y79998D01*
X228333Y80831D01*
X227500Y84996D02*
X232498D01*
X229999Y82497D01*
Y85829D01*
X267500Y77500D02*
X271436D01*
Y79468D01*
X270780Y80124D01*
X269468D01*
X268812Y79468D01*
Y77500D01*
X267500Y81436D02*
X270124D01*
X271436Y82748D01*
X270124Y84060D01*
X267500D01*
X269468D01*
Y81436D01*
X267500Y87339D02*
X271436D01*
X269468Y85372D01*
Y87995D01*
X207500Y72500D02*
X212498D01*
Y74999D01*
X211665Y75832D01*
X209999D01*
X209166Y74999D01*
Y72500D01*
X212498Y77498D02*
X207500D01*
Y79998D01*
X208333Y80831D01*
X209166D01*
X209999Y79998D01*
Y77498D01*
Y79998D01*
X210832Y80831D01*
X211665D01*
X212498Y79998D01*
Y77498D01*
X211665Y82497D02*
X212498Y83330D01*
Y84996D01*
X211665Y85829D01*
X208333D01*
X207500Y84996D01*
Y83330D01*
X208333Y82497D01*
X211665D01*
X67500Y12500D02*
X72498D01*
Y14999D01*
X71665Y15832D01*
X69999D01*
X69166Y14999D01*
Y12500D01*
X71665Y20831D02*
X72498Y19998D01*
Y18331D01*
X71665Y17498D01*
X68333D01*
X67500Y18331D01*
Y19998D01*
X68333Y20831D01*
X67500Y22497D02*
Y24163D01*
Y23330D01*
X72498D01*
X71665Y22497D01*
Y26662D02*
X72498Y27495D01*
Y29161D01*
X71665Y29994D01*
X68333D01*
X67500Y29161D01*
Y27495D01*
X68333Y26662D01*
X71665D01*
X277500Y77500D02*
X281436D01*
Y79468D01*
X280780Y80124D01*
X279468D01*
X278812Y79468D01*
Y77500D01*
X277500Y81436D02*
X280124D01*
X281436Y82748D01*
X280124Y84060D01*
X277500D01*
X279468D01*
Y81436D01*
X280780Y85372D02*
X281436Y86027D01*
Y87339D01*
X280780Y87995D01*
X280124D01*
X279468Y87339D01*
Y86683D01*
Y87339D01*
X278812Y87995D01*
X278156D01*
X277500Y87339D01*
Y86027D01*
X278156Y85372D01*
X291665Y75832D02*
X292498Y74999D01*
Y73333D01*
X291665Y72500D01*
X288333D01*
X287500Y73333D01*
Y74999D01*
X288333Y75832D01*
X289999D01*
Y74166D01*
X287500Y77498D02*
X292498D01*
X287500Y80831D01*
X292498D01*
Y82497D02*
X287500D01*
Y84996D01*
X288333Y85829D01*
X291665D01*
X292498Y84996D01*
Y82497D01*
X77500Y12500D02*
X82498D01*
Y14999D01*
X81665Y15832D01*
X79999D01*
X79166Y14999D01*
Y12500D01*
X81665Y20831D02*
X82498Y19998D01*
Y18331D01*
X81665Y17498D01*
X78333D01*
X77500Y18331D01*
Y19998D01*
X78333Y20831D01*
X77500Y22497D02*
Y24163D01*
Y23330D01*
X82498D01*
X81665Y22497D01*
X77500Y26662D02*
Y28328D01*
Y27495D01*
X82498D01*
X81665Y26662D01*
X57500Y12500D02*
X62498D01*
Y14999D01*
X61665Y15832D01*
X59999D01*
X59166Y14999D01*
Y12500D01*
X57500Y17498D02*
X60832D01*
X62498Y19164D01*
X60832Y20831D01*
X57500D01*
X59999D01*
Y17498D01*
X57500Y22497D02*
Y24163D01*
Y23330D01*
X62498D01*
X61665Y22497D01*
X62498Y29994D02*
Y26662D01*
X59999D01*
X60832Y28328D01*
Y29161D01*
X59999Y29994D01*
X58333D01*
X57500Y29161D01*
Y27495D01*
X58333Y26662D01*
X97500Y12500D02*
X101829D01*
Y14665D01*
X101108Y15386D01*
X99665D01*
X98943Y14665D01*
Y12500D01*
X101829Y16829D02*
X97500D01*
Y18994D01*
X98222Y19715D01*
X98943D01*
X99665Y18994D01*
Y16829D01*
Y18994D01*
X100386Y19715D01*
X101108D01*
X101829Y18994D01*
Y16829D01*
X101108Y21159D02*
X101829Y21880D01*
Y23323D01*
X101108Y24045D01*
X100386D01*
X99665Y23323D01*
Y22602D01*
Y23323D01*
X98943Y24045D01*
X98222D01*
X97500Y23323D01*
Y21880D01*
X98222Y21159D01*
X87500Y10000D02*
X91436D01*
Y11968D01*
X90780Y12624D01*
X89468D01*
X88812Y11968D01*
Y10000D01*
X90780Y16560D02*
X91436Y15904D01*
Y14592D01*
X90780Y13936D01*
X88156D01*
X87500Y14592D01*
Y15904D01*
X88156Y16560D01*
X87500Y17872D02*
Y19183D01*
Y18527D01*
X91436D01*
X90780Y17872D01*
X87500Y23775D02*
Y21151D01*
X90124Y23775D01*
X90780D01*
X91436Y23119D01*
Y21807D01*
X90780Y21151D01*
X47500Y12500D02*
X52498D01*
Y14999D01*
X51665Y15832D01*
X49999D01*
X49166Y14999D01*
Y12500D01*
X47500Y17498D02*
X50832D01*
X52498Y19164D01*
X50832Y20831D01*
X47500D01*
X49999D01*
Y17498D01*
X47500Y22497D02*
Y24163D01*
Y23330D01*
X52498D01*
X51665Y22497D01*
X47500Y29161D02*
X52498D01*
X49999Y26662D01*
Y29994D01*
X107500Y12500D02*
X112026D01*
Y14763D01*
X111272Y15517D01*
X109763D01*
X109009Y14763D01*
Y12500D01*
X112026Y17026D02*
X107500D01*
Y19289D01*
X108254Y20043D01*
X109009D01*
X109763Y19289D01*
Y17026D01*
Y19289D01*
X110517Y20043D01*
X111272D01*
X112026Y19289D01*
Y17026D01*
X107500Y23815D02*
X112026D01*
X109763Y21552D01*
Y24570D01*
X31665Y15832D02*
X32498Y14999D01*
Y13333D01*
X31665Y12500D01*
X28333D01*
X27500Y13333D01*
Y14999D01*
X28333Y15832D01*
X29999D01*
Y14166D01*
X27500Y17498D02*
X32498D01*
X27500Y20831D01*
X32498D01*
Y22497D02*
X27500D01*
Y24996D01*
X28333Y25829D01*
X31665D01*
X32498Y24996D01*
Y22497D01*
X117500Y12500D02*
X122498D01*
Y14999D01*
X121665Y15832D01*
X119999D01*
X119166Y14999D01*
Y12500D01*
X122498Y17498D02*
X117500D01*
Y19998D01*
X118333Y20831D01*
X119166D01*
X119999Y19998D01*
Y17498D01*
Y19998D01*
X120832Y20831D01*
X121665D01*
X122498Y19998D01*
Y17498D01*
Y25829D02*
Y22497D01*
X119999D01*
X120832Y24163D01*
Y24996D01*
X119999Y25829D01*
X118333D01*
X117500Y24996D01*
Y23330D01*
X118333Y22497D01*
X42498Y12500D02*
X38333D01*
X37500Y13333D01*
Y14999D01*
X38333Y15832D01*
X42498D01*
X41665Y20831D02*
X42498Y19998D01*
Y18331D01*
X41665Y17498D01*
X40832D01*
X39999Y18331D01*
Y19998D01*
X39166Y20831D01*
X38333D01*
X37500Y19998D01*
Y18331D01*
X38333Y17498D01*
X42498Y22497D02*
X37500D01*
Y24996D01*
X38333Y25829D01*
X39166D01*
X39999Y24996D01*
Y22497D01*
Y24996D01*
X40832Y25829D01*
X41665D01*
X42498Y24996D01*
Y22497D01*
X39999Y27495D02*
Y30827D01*
X42498Y32493D02*
Y34160D01*
Y33327D01*
X37500D01*
Y32493D01*
Y34160D01*
X42498Y36659D02*
X37500D01*
Y39158D01*
X38333Y39991D01*
X41665D01*
X42498Y39158D01*
Y36659D01*
X127500Y12500D02*
X132498D01*
Y14999D01*
X131665Y15832D01*
X129999D01*
X129166Y14999D01*
Y12500D01*
X132498Y17498D02*
X127500D01*
Y19998D01*
X128333Y20831D01*
X129166D01*
X129999Y19998D01*
Y17498D01*
Y19998D01*
X130832Y20831D01*
X131665D01*
X132498Y19998D01*
Y17498D01*
Y25829D02*
X131665Y24163D01*
X129999Y22497D01*
X128333D01*
X127500Y23330D01*
Y24996D01*
X128333Y25829D01*
X129166D01*
X129999Y24996D01*
Y22497D01*
X187500Y12500D02*
X192498D01*
Y14999D01*
X191665Y15832D01*
X189999D01*
X189166Y14999D01*
Y12500D01*
X191665Y20831D02*
X192498Y19998D01*
Y18331D01*
X191665Y17498D01*
X188333D01*
X187500Y18331D01*
Y19998D01*
X188333Y20831D01*
X187500Y22497D02*
Y24163D01*
Y23330D01*
X192498D01*
X191665Y22497D01*
Y26662D02*
X192498Y27495D01*
Y29161D01*
X191665Y29994D01*
X190832D01*
X189999Y29161D01*
Y28328D01*
Y29161D01*
X189166Y29994D01*
X188333D01*
X187500Y29161D01*
Y27495D01*
X188333Y26662D01*
X171665Y15832D02*
X172498Y14999D01*
Y13333D01*
X171665Y12500D01*
X168333D01*
X167500Y13333D01*
Y14999D01*
X168333Y15832D01*
X169999D01*
Y14166D01*
X167500Y17498D02*
X172498D01*
X167500Y20831D01*
X172498D01*
Y22497D02*
X167500D01*
Y24996D01*
X168333Y25829D01*
X171665D01*
X172498Y24996D01*
Y22497D01*
X157500Y12500D02*
X162498D01*
Y14999D01*
X161665Y15832D01*
X159999D01*
X159166Y14999D01*
Y12500D01*
X162498Y17498D02*
X157500D01*
Y19998D01*
X158333Y20831D01*
X159166D01*
X159999Y19998D01*
Y17498D01*
Y19998D01*
X160832Y20831D01*
X161665D01*
X162498Y19998D01*
Y17498D01*
X158333Y22497D02*
X157500Y23330D01*
Y24996D01*
X158333Y25829D01*
X161665D01*
X162498Y24996D01*
Y23330D01*
X161665Y22497D01*
X160832D01*
X159999Y23330D01*
Y25829D01*
X137500Y12500D02*
X142498D01*
Y14999D01*
X141665Y15832D01*
X139999D01*
X139166Y14999D01*
Y12500D01*
X142498Y17498D02*
X137500D01*
Y19998D01*
X138333Y20831D01*
X139166D01*
X139999Y19998D01*
Y17498D01*
Y19998D01*
X140832Y20831D01*
X141665D01*
X142498Y19998D01*
Y17498D01*
Y22497D02*
Y25829D01*
X141665D01*
X138333Y22497D01*
X137500D01*
X182498Y12500D02*
X179166D01*
X177500Y14166D01*
X179166Y15832D01*
X182498D01*
Y17498D02*
X177500D01*
Y19998D01*
X178333Y20831D01*
X179166D01*
X179999Y19998D01*
Y17498D01*
Y19998D01*
X180832Y20831D01*
X181665D01*
X182498Y19998D01*
Y17498D01*
X177500Y22497D02*
X180832D01*
X182498Y24163D01*
X180832Y25829D01*
X177500D01*
X179999D01*
Y22497D01*
X182498Y27495D02*
Y30827D01*
Y29161D01*
X177500D01*
X207500Y12500D02*
X212498D01*
Y14999D01*
X211665Y15832D01*
X209999D01*
X209166Y14999D01*
Y12500D01*
X211665Y20831D02*
X212498Y19998D01*
Y18331D01*
X211665Y17498D01*
X208333D01*
X207500Y18331D01*
Y19998D01*
X208333Y20831D01*
X211665Y22497D02*
X212498Y23330D01*
Y24996D01*
X211665Y25829D01*
X208333D01*
X207500Y24996D01*
Y23330D01*
X208333Y22497D01*
X211665D01*
X257500Y12500D02*
X262498D01*
Y14999D01*
X261665Y15832D01*
X259999D01*
X259166Y14999D01*
Y12500D01*
X257500Y17498D02*
X260832D01*
X262498Y19164D01*
X260832Y20831D01*
X257500D01*
X259999D01*
Y17498D01*
X257500Y22497D02*
Y24163D01*
Y23330D01*
X262498D01*
X261665Y22497D01*
X237500Y12500D02*
X242498D01*
Y14999D01*
X241665Y15832D01*
X239999D01*
X239166Y14999D01*
Y12500D01*
X241665Y20831D02*
X242498Y19998D01*
Y18331D01*
X241665Y17498D01*
X238333D01*
X237500Y18331D01*
Y19998D01*
X238333Y20831D01*
X237500Y25829D02*
Y22497D01*
X240832Y25829D01*
X241665D01*
X242498Y24996D01*
Y23330D01*
X241665Y22497D01*
X227500Y12500D02*
X232498D01*
Y14999D01*
X231665Y15832D01*
X229999D01*
X229166Y14999D01*
Y12500D01*
X231665Y20831D02*
X232498Y19998D01*
Y18331D01*
X231665Y17498D01*
X228333D01*
X227500Y18331D01*
Y19998D01*
X228333Y20831D01*
X227500Y22497D02*
Y24163D01*
Y23330D01*
X232498D01*
X231665Y22497D01*
X267500Y12500D02*
X272498D01*
Y14999D01*
X271665Y15832D01*
X269999D01*
X269166Y14999D01*
Y12500D01*
X267500Y17498D02*
X270832D01*
X272498Y19164D01*
X270832Y20831D01*
X267500D01*
X269999D01*
Y17498D01*
X267500Y25829D02*
Y22497D01*
X270832Y25829D01*
X271665D01*
X272498Y24996D01*
Y23330D01*
X271665Y22497D01*
X247500Y12500D02*
X252498D01*
Y14999D01*
X251665Y15832D01*
X249999D01*
X249166Y14999D01*
Y12500D01*
X247500Y17498D02*
X250832D01*
X252498Y19164D01*
X250832Y20831D01*
X247500D01*
X249999D01*
Y17498D01*
X251665Y22497D02*
X252498Y23330D01*
Y24996D01*
X251665Y25829D01*
X248333D01*
X247500Y24996D01*
Y23330D01*
X248333Y22497D01*
X251665D01*
X291665Y15832D02*
X292498Y14999D01*
Y13333D01*
X291665Y12500D01*
X288333D01*
X287500Y13333D01*
Y14999D01*
X288333Y15832D01*
X289999D01*
Y14166D01*
X287500Y17498D02*
X292498D01*
X287500Y20831D01*
X292498D01*
Y22497D02*
X287500D01*
Y24996D01*
X288333Y25829D01*
X291665D01*
X292498Y24996D01*
Y22497D01*
X281665Y15832D02*
X282498Y14999D01*
Y13333D01*
X281665Y12500D01*
X278333D01*
X277500Y13333D01*
Y14999D01*
X278333Y15832D01*
X279999D01*
Y14166D01*
X277500Y17498D02*
X282498D01*
X277500Y20831D01*
X282498D01*
Y22497D02*
X277500D01*
Y24996D01*
X278333Y25829D01*
X281665D01*
X282498Y24996D01*
Y22497D01*
M02*
