G04*
G04 #@! TF.GenerationSoftware,Altium Limited,Altium Designer,19.1.9 (167)*
G04*
G04 Layer_Color=65535*
%FSLAX25Y25*%
%MOIN*%
G70*
G01*
G75*
%ADD10C,0.00984*%
%ADD11C,0.00394*%
%ADD12C,0.00787*%
%ADD13C,0.00500*%
%ADD14C,0.00591*%
%ADD15C,0.00600*%
%ADD16C,0.01000*%
%ADD17C,0.00400*%
D10*
X58900Y30590D02*
G03*
X58900Y30590I-300J0D01*
G01*
X77001Y52639D02*
G03*
X77001Y52639I-492J0D01*
G01*
X67081Y78017D02*
G03*
X67081Y78017I-492J0D01*
G01*
D11*
X28937Y80366D02*
G03*
X28937Y80366I-197J0D01*
G01*
X95957Y62634D02*
G03*
X95957Y62634I-197J0D01*
G01*
X223389Y15460D02*
Y22940D01*
Y15460D02*
Y22940D01*
X239137D01*
X223389D02*
X239137D01*
X223389Y15460D02*
X239137D01*
X223389D02*
X239137D01*
D12*
X226947Y47853D02*
G03*
X226947Y29546I0J-9154D01*
G01*
X252144D02*
G03*
X252144Y47853I0J9154D01*
G01*
X53187Y31869D02*
Y40531D01*
X55549Y31869D02*
Y40531D01*
X53187D02*
X55549D01*
X53187Y31869D02*
X55549Y31869D01*
X28740Y70917D02*
Y73083D01*
X21260Y70917D02*
Y73083D01*
X95760Y69917D02*
Y72083D01*
X103240Y69917D02*
Y72083D01*
X6000Y62500D02*
Y82500D01*
Y62500D02*
X16000D01*
Y82500D01*
X6000D02*
X16000D01*
X226947Y29546D02*
X252144D01*
X226947Y47853D02*
X252144D01*
X259700Y78000D02*
X279700D01*
X259700Y58000D02*
Y78000D01*
X279700Y58000D02*
Y78000D01*
X259700Y58000D02*
X279700D01*
X89501Y80002D02*
X90190D01*
X89501Y55198D02*
X90190Y55198D01*
X76410Y80002D02*
X77099D01*
X76410Y55198D02*
X77099D01*
X90190D02*
Y80002D01*
X76410Y55198D02*
Y80002D01*
X86200Y23900D02*
X116200Y23900D01*
Y33900D01*
X86200Y33900D02*
X116200Y33900D01*
X86200Y23900D02*
Y33900D01*
D13*
X225800Y57200D02*
X228800D01*
D14*
X4665Y60329D02*
X3221D01*
X2500Y59608D01*
Y56722D01*
X3221Y56000D01*
X4665D01*
X5386Y56722D01*
Y59608D01*
X4665Y60329D01*
X6829Y56000D02*
Y60329D01*
X9715Y56000D01*
Y60329D01*
X18374D02*
X15488D01*
Y58165D01*
X16931Y58886D01*
X17653D01*
X18374Y58165D01*
Y56722D01*
X17653Y56000D01*
X16209D01*
X15488Y56722D01*
X19817Y60329D02*
Y57443D01*
X21260Y56000D01*
X22704Y57443D01*
Y60329D01*
D15*
X236100Y65299D02*
Y60900D01*
X238299D01*
X239032Y61633D01*
Y62366D01*
X238299Y63099D01*
X236100D01*
X238299D01*
X239032Y63832D01*
Y64565D01*
X238299Y65299D01*
X236100D01*
X242698D02*
X241232D01*
X240499Y64565D01*
Y61633D01*
X241232Y60900D01*
X242698D01*
X243431Y61633D01*
Y64565D01*
X242698Y65299D01*
X247096D02*
X245630D01*
X244897Y64565D01*
Y61633D01*
X245630Y60900D01*
X247096D01*
X247830Y61633D01*
Y64565D01*
X247096Y65299D01*
X249296D02*
X252228D01*
X250762D01*
Y60900D01*
X236100Y71100D02*
Y75499D01*
X238299D01*
X239032Y74765D01*
Y73299D01*
X238299Y72566D01*
X236100D01*
X237566D02*
X239032Y71100D01*
X243431Y75499D02*
X240499D01*
Y71100D01*
X243431D01*
X240499Y73299D02*
X241965D01*
X247830Y74765D02*
X247096Y75499D01*
X245630D01*
X244897Y74765D01*
Y74032D01*
X245630Y73299D01*
X247096D01*
X247830Y72566D01*
Y71833D01*
X247096Y71100D01*
X245630D01*
X244897Y71833D01*
X252228Y75499D02*
X249296D01*
Y71100D01*
X252228D01*
X249296Y73299D02*
X250762D01*
X253694Y75499D02*
X256627D01*
X255160D01*
Y71100D01*
X121166Y30532D02*
X120499Y31199D01*
X119167D01*
X118500Y30532D01*
Y29866D01*
X119167Y29199D01*
X120499D01*
X121166Y28533D01*
Y27866D01*
X120499Y27200D01*
X119167D01*
X118500Y27866D01*
X122499Y31199D02*
Y27200D01*
X123832Y28533D01*
X125164Y27200D01*
Y31199D01*
X126497D02*
Y27200D01*
X128497D01*
X129163Y27866D01*
Y30532D01*
X128497Y31199D01*
X126497D01*
X130496D02*
X131829D01*
X131163D01*
Y27200D01*
X130496D01*
X131829D01*
X135828Y31199D02*
X134495D01*
X133828Y30532D01*
Y27866D01*
X134495Y27200D01*
X135828D01*
X136494Y27866D01*
Y30532D01*
X135828Y31199D01*
X95666Y20232D02*
X94999Y20899D01*
X93666D01*
X93000Y20232D01*
Y19566D01*
X93666Y18899D01*
X94999D01*
X95666Y18233D01*
Y17567D01*
X94999Y16900D01*
X93666D01*
X93000Y17567D01*
X96999Y20899D02*
Y16900D01*
X98332Y18233D01*
X99664Y16900D01*
Y20899D01*
X103663Y20232D02*
X102997Y20899D01*
X101664D01*
X100997Y20232D01*
Y17567D01*
X101664Y16900D01*
X102997D01*
X103663Y17567D01*
X104996Y20899D02*
Y16900D01*
X107662D01*
X108995Y20899D02*
Y16900D01*
Y18233D01*
X111661Y20899D01*
X109661Y18899D01*
X111661Y16900D01*
X75866Y29932D02*
X75199Y30599D01*
X73866D01*
X73200Y29932D01*
Y27266D01*
X73866Y26600D01*
X75199D01*
X75866Y27266D01*
Y28599D01*
X74533D01*
X77199Y26600D02*
Y30599D01*
X79865Y26600D01*
Y30599D01*
X81197D02*
Y26600D01*
X83197D01*
X83863Y27266D01*
Y29932D01*
X83197Y30599D01*
X81197D01*
X128533Y72099D02*
X127366D01*
X127949D01*
Y69183D01*
X127366Y68600D01*
X126783D01*
X126200Y69183D01*
X129699Y68600D02*
Y72099D01*
X130865Y70933D01*
X132031Y72099D01*
Y68600D01*
X133198D02*
Y72099D01*
X134947D01*
X135530Y71516D01*
Y70349D01*
X134947Y69766D01*
X133198D01*
X136697Y70349D02*
X139029D01*
X140196Y72099D02*
Y69183D01*
X140779Y68600D01*
X141945D01*
X142528Y69183D01*
Y72099D01*
X143694D02*
X144861D01*
X144278D01*
Y68600D01*
X143694D01*
X144861D01*
X146610Y72099D02*
Y68600D01*
X148360D01*
X148943Y69183D01*
Y71516D01*
X148360Y72099D01*
X146610D01*
D16*
X29099Y16798D02*
X28099Y17798D01*
X26100D01*
X25100Y16798D01*
Y15799D01*
X26100Y14799D01*
X28099D01*
X29099Y13799D01*
Y12800D01*
X28099Y11800D01*
X26100D01*
X25100Y12800D01*
X31098Y17798D02*
X35097D01*
X33097D01*
Y11800D01*
X37096D02*
Y17798D01*
X39096Y15799D01*
X41095Y17798D01*
Y11800D01*
X43094Y16798D02*
X44094Y17798D01*
X46093D01*
X47093Y16798D01*
Y15799D01*
X46093Y14799D01*
X45094D01*
X46093D01*
X47093Y13799D01*
Y12800D01*
X46093Y11800D01*
X44094D01*
X43094Y12800D01*
X53091Y11800D02*
X49092D01*
X53091Y15799D01*
Y16798D01*
X52091Y17798D01*
X50092D01*
X49092Y16798D01*
X59089Y17798D02*
X55090D01*
Y14799D01*
X57090D01*
X55090D01*
Y11800D01*
X64087D02*
Y17798D01*
X61088Y14799D01*
X65087D01*
X67086Y16798D02*
X68086Y17798D01*
X70086D01*
X71085Y16798D01*
Y12800D01*
X70086Y11800D01*
X68086D01*
X67086Y12800D01*
Y16798D01*
X77083Y17798D02*
X73084D01*
Y14799D01*
X75084Y15799D01*
X76083D01*
X77083Y14799D01*
Y12800D01*
X76083Y11800D01*
X74084D01*
X73084Y12800D01*
D17*
X52100Y29299D02*
Y26900D01*
X53300D01*
X53699Y27300D01*
Y28899D01*
X53300Y29299D01*
X52100D01*
X56099Y26900D02*
X54499D01*
X56099Y28499D01*
Y28899D01*
X55699Y29299D01*
X54899D01*
X54499Y28899D01*
X231300Y58699D02*
Y56300D01*
X232899D01*
X233699D02*
X234499D01*
X234099D01*
Y58699D01*
X233699Y58299D01*
X213900Y29799D02*
Y29399D01*
X214700Y28600D01*
X215499Y29399D01*
Y29799D01*
X214700Y28600D02*
Y27400D01*
X217899D02*
X216299D01*
X217899Y29000D01*
Y29399D01*
X217499Y29799D01*
X216699D01*
X216299Y29399D01*
X201900Y19399D02*
X201500Y19799D01*
X200700D01*
X200300Y19399D01*
Y17800D01*
X200700Y17400D01*
X201500D01*
X201900Y17800D01*
X202699Y17400D02*
X203499D01*
X203099D01*
Y19799D01*
X202699Y19399D01*
X204699Y19799D02*
X206298D01*
Y19399D01*
X204699Y17800D01*
Y17400D01*
X201900Y28899D02*
X201500Y29299D01*
X200700D01*
X200300Y28899D01*
Y27300D01*
X200700Y26900D01*
X201500D01*
X201900Y27300D01*
X202699Y26900D02*
X203499D01*
X203099D01*
Y29299D01*
X202699Y28899D01*
X206298Y29299D02*
X205498Y28899D01*
X204699Y28100D01*
Y27300D01*
X205098Y26900D01*
X205898D01*
X206298Y27300D01*
Y27700D01*
X205898Y28100D01*
X204699D01*
X16999Y15699D02*
X16200D01*
X16600D01*
Y13700D01*
X16200Y13300D01*
X15800D01*
X15400Y13700D01*
X17799Y13300D02*
X18599D01*
X18199D01*
Y15699D01*
X17799Y15299D01*
X156500Y74899D02*
Y72900D01*
X156900Y72500D01*
X157700D01*
X158099Y72900D01*
Y74899D01*
X158899Y72500D02*
X159699D01*
X159299D01*
Y74899D01*
X158899Y74499D01*
X7500Y85000D02*
Y87399D01*
X8700D01*
X9099Y86999D01*
Y86200D01*
X8700Y85800D01*
X7500D01*
X11499Y87399D02*
X9899D01*
Y86200D01*
X10699Y86599D01*
X11099D01*
X11499Y86200D01*
Y85400D01*
X11099Y85000D01*
X10299D01*
X9899Y85400D01*
X287402Y11811D02*
Y14210D01*
X288601D01*
X289001Y13810D01*
Y13011D01*
X288601Y12611D01*
X287402D01*
X291000Y11811D02*
Y14210D01*
X289801Y13011D01*
X291400D01*
X288000Y85500D02*
Y87899D01*
X289200D01*
X289599Y87499D01*
Y86700D01*
X289200Y86300D01*
X288000D01*
X290399Y87499D02*
X290799Y87899D01*
X291599D01*
X291999Y87499D01*
Y87099D01*
X291599Y86700D01*
X291199D01*
X291599D01*
X291999Y86300D01*
Y85900D01*
X291599Y85500D01*
X290799D01*
X290399Y85900D01*
X27100Y32200D02*
Y34599D01*
X28300D01*
X28699Y34199D01*
Y33400D01*
X28300Y33000D01*
X27100D01*
X27900D02*
X28699Y32200D01*
X29499D02*
X30299D01*
X29899D01*
Y34599D01*
X29499Y34199D01*
X27100Y37700D02*
Y40099D01*
X28300D01*
X28699Y39699D01*
Y38900D01*
X28300Y38500D01*
X27100D01*
X27900D02*
X28699Y37700D01*
X31099D02*
X29499D01*
X31099Y39299D01*
Y39699D01*
X30699Y40099D01*
X29899D01*
X29499Y39699D01*
X99599Y60499D02*
X99200Y60899D01*
X98400D01*
X98000Y60499D01*
Y58900D01*
X98400Y58500D01*
X99200D01*
X99599Y58900D01*
X100399Y58500D02*
X101199D01*
X100799D01*
Y60899D01*
X100399Y60499D01*
X205599Y71999D02*
X205200Y72399D01*
X204400D01*
X204000Y71999D01*
Y70400D01*
X204400Y70000D01*
X205200D01*
X205599Y70400D01*
X207999Y70000D02*
X206399D01*
X207999Y71600D01*
Y71999D01*
X207599Y72399D01*
X206799D01*
X206399Y71999D01*
X137100Y55199D02*
X136700Y55599D01*
X135900D01*
X135500Y55199D01*
Y53600D01*
X135900Y53200D01*
X136700D01*
X137100Y53600D01*
X139099Y53200D02*
Y55599D01*
X137899Y54400D01*
X139499D01*
X183099Y16499D02*
X182700Y16899D01*
X181900D01*
X181500Y16499D01*
Y14900D01*
X181900Y14500D01*
X182700D01*
X183099Y14900D01*
X185499Y16899D02*
X183899D01*
Y15700D01*
X184699Y16100D01*
X185099D01*
X185499Y15700D01*
Y14900D01*
X185099Y14500D01*
X184299D01*
X183899Y14900D01*
X217700Y66299D02*
X217300Y66699D01*
X216500D01*
X216100Y66299D01*
Y64700D01*
X216500Y64300D01*
X217300D01*
X217700Y64700D01*
X220099Y66699D02*
X219299Y66299D01*
X218499Y65500D01*
Y64700D01*
X218899Y64300D01*
X219699D01*
X220099Y64700D01*
Y65100D01*
X219699Y65500D01*
X218499D01*
X191100Y86999D02*
X190700Y87399D01*
X189900D01*
X189500Y86999D01*
Y85400D01*
X189900Y85000D01*
X190700D01*
X191100Y85400D01*
X191899Y87399D02*
X193499D01*
Y86999D01*
X191899Y85400D01*
Y85000D01*
X130200Y55345D02*
X129800Y55745D01*
X129000D01*
X128600Y55345D01*
Y53746D01*
X129000Y53346D01*
X129800D01*
X130200Y53746D01*
X130999Y55345D02*
X131399Y55745D01*
X132199D01*
X132599Y55345D01*
Y54945D01*
X132199Y54546D01*
X132599Y54146D01*
Y53746D01*
X132199Y53346D01*
X131399D01*
X130999Y53746D01*
Y54146D01*
X131399Y54546D01*
X130999Y54945D01*
Y55345D01*
X131399Y54546D02*
X132199D01*
X24100Y83999D02*
X23700Y84399D01*
X22900D01*
X22500Y83999D01*
Y82400D01*
X22900Y82000D01*
X23700D01*
X24100Y82400D01*
X24899D02*
X25299Y82000D01*
X26099D01*
X26499Y82400D01*
Y83999D01*
X26099Y84399D01*
X25299D01*
X24899Y83999D01*
Y83600D01*
X25299Y83200D01*
X26499D01*
X214400Y49699D02*
Y49299D01*
X215200Y48500D01*
X216000Y49299D01*
Y49699D01*
X215200Y48500D02*
Y47300D01*
X216799D02*
X217599D01*
X217199D01*
Y49699D01*
X216799Y49299D01*
X262299Y22799D02*
X261900Y23199D01*
X261100D01*
X260700Y22799D01*
Y21200D01*
X261100Y20800D01*
X261900D01*
X262299Y21200D01*
X263099Y20800D02*
X263899D01*
X263499D01*
Y23199D01*
X263099Y22799D01*
X266698Y20800D02*
X265099D01*
X266698Y22400D01*
Y22799D01*
X266298Y23199D01*
X265498D01*
X265099Y22799D01*
X206100Y37499D02*
X205700Y37899D01*
X204900D01*
X204500Y37499D01*
Y35900D01*
X204900Y35500D01*
X205700D01*
X206100Y35900D01*
X206899Y35500D02*
X207699D01*
X207299D01*
Y37899D01*
X206899Y37499D01*
X208899D02*
X209298Y37899D01*
X210098D01*
X210498Y37499D01*
Y37099D01*
X210098Y36700D01*
X209698D01*
X210098D01*
X210498Y36300D01*
Y35900D01*
X210098Y35500D01*
X209298D01*
X208899Y35900D01*
X277500Y30000D02*
Y32399D01*
X278700D01*
X279099Y31999D01*
Y31200D01*
X278700Y30800D01*
X277500D01*
X278300D02*
X279099Y30000D01*
X279899Y31999D02*
X280299Y32399D01*
X281099D01*
X281499Y31999D01*
Y31600D01*
X281099Y31200D01*
X280699D01*
X281099D01*
X281499Y30800D01*
Y30400D01*
X281099Y30000D01*
X280299D01*
X279899Y30400D01*
X275500Y82500D02*
Y84899D01*
X276700D01*
X277099Y84499D01*
Y83700D01*
X276700Y83300D01*
X275500D01*
X276300D02*
X277099Y82500D01*
X279099D02*
Y84899D01*
X277899Y83700D01*
X279499D01*
X266500Y51000D02*
Y53399D01*
X267700D01*
X268099Y52999D01*
Y52200D01*
X267700Y51800D01*
X266500D01*
X267300D02*
X268099Y51000D01*
X270499Y53399D02*
X268899D01*
Y52200D01*
X269699Y52600D01*
X270099D01*
X270499Y52200D01*
Y51400D01*
X270099Y51000D01*
X269299D01*
X268899Y51400D01*
X166100Y81999D02*
X165700Y82399D01*
X164900D01*
X164500Y81999D01*
Y80400D01*
X164900Y80000D01*
X165700D01*
X166100Y80400D01*
X166899Y81999D02*
X167299Y82399D01*
X168099D01*
X168499Y81999D01*
Y81599D01*
X168099Y81200D01*
X167699D01*
X168099D01*
X168499Y80800D01*
Y80400D01*
X168099Y80000D01*
X167299D01*
X166899Y80400D01*
X282000Y70500D02*
Y72899D01*
X283200D01*
X283599Y72499D01*
Y71700D01*
X283200Y71300D01*
X282000D01*
X284399Y70500D02*
X285199D01*
X284799D01*
Y72899D01*
X284399Y72499D01*
X82099Y49999D02*
X81700Y50399D01*
X80900D01*
X80500Y49999D01*
Y48400D01*
X80900Y48000D01*
X81700D01*
X82099Y48400D01*
X82899Y48000D02*
X83699D01*
X83299D01*
Y50399D01*
X82899Y49999D01*
X86098Y48000D02*
Y50399D01*
X84899Y49200D01*
X86498D01*
X85800Y37100D02*
Y39499D01*
X87000D01*
X87400Y39099D01*
Y38300D01*
X87000Y37900D01*
X85800D01*
X89799Y37100D02*
X88199D01*
X89799Y38699D01*
Y39099D01*
X89399Y39499D01*
X88599D01*
X88199Y39099D01*
X266500Y45399D02*
Y43000D01*
X267700D01*
X268099Y43400D01*
Y44999D01*
X267700Y45399D01*
X266500D01*
X268899Y43000D02*
X269699D01*
X269299D01*
Y45399D01*
X268899Y44999D01*
X62500Y48299D02*
Y46300D01*
X62900Y45900D01*
X63700D01*
X64100Y46300D01*
Y48299D01*
X66499Y45900D02*
X64899D01*
X66499Y47499D01*
Y47899D01*
X66099Y48299D01*
X65299D01*
X64899Y47899D01*
X33400Y83499D02*
X33000Y83899D01*
X32200D01*
X31800Y83499D01*
Y81900D01*
X32200Y81500D01*
X33000D01*
X33400Y81900D01*
X34199Y81500D02*
X34999D01*
X34599D01*
Y83899D01*
X34199Y83499D01*
X36199Y81500D02*
X36998D01*
X36598D01*
Y83899D01*
X36199Y83499D01*
X113600Y74499D02*
X113200Y74899D01*
X112400D01*
X112000Y74499D01*
Y72900D01*
X112400Y72500D01*
X113200D01*
X113600Y72900D01*
X114399Y72500D02*
X115199D01*
X114799D01*
Y74899D01*
X114399Y74499D01*
X117998Y74899D02*
X116399D01*
Y73700D01*
X117198Y74099D01*
X117598D01*
X117998Y73700D01*
Y72900D01*
X117598Y72500D01*
X116798D01*
X116399Y72900D01*
M02*
