G04*
G04 #@! TF.GenerationSoftware,Altium Limited,Altium Designer,19.1.9 (167)*
G04*
G04 Layer_Color=8388736*
%FSLAX25Y25*%
%MOIN*%
G70*
G01*
G75*
G04:AMPARAMS|DCode=18|XSize=55.24mil|YSize=19.81mil|CornerRadius=0mil|HoleSize=0mil|Usage=FLASHONLY|Rotation=225.000|XOffset=0mil|YOffset=0mil|HoleType=Round|Shape=Rectangle|*
%AMROTATEDRECTD18*
4,1,4,0.01253,0.02653,0.02653,0.01253,-0.01253,-0.02653,-0.02653,-0.01253,0.01253,0.02653,0.0*
%
%ADD18ROTATEDRECTD18*%

G04:AMPARAMS|DCode=19|XSize=55.24mil|YSize=19.81mil|CornerRadius=0mil|HoleSize=0mil|Usage=FLASHONLY|Rotation=135.000|XOffset=0mil|YOffset=0mil|HoleType=Round|Shape=Rectangle|*
%AMROTATEDRECTD19*
4,1,4,0.02653,-0.01253,0.01253,-0.02653,-0.02653,0.01253,-0.01253,0.02653,0.02653,-0.01253,0.0*
%
%ADD19ROTATEDRECTD19*%

%ADD20R,0.08280X0.02178*%
%ADD21R,0.07099X0.09068*%
%ADD22R,0.08280X0.07887*%
%ADD23R,0.03950X0.02200*%
%ADD24R,0.05721X0.06902*%
%ADD25R,0.03556X0.04147*%
%ADD26R,0.05131X0.04737*%
%ADD27R,0.04737X0.05131*%
G04:AMPARAMS|DCode=28|XSize=51.31mil|YSize=47.37mil|CornerRadius=0mil|HoleSize=0mil|Usage=FLASHONLY|Rotation=315.000|XOffset=0mil|YOffset=0mil|HoleType=Round|Shape=Rectangle|*
%AMROTATEDRECTD28*
4,1,4,-0.03489,0.00139,-0.00139,0.03489,0.03489,-0.00139,0.00139,-0.03489,-0.03489,0.00139,0.0*
%
%ADD28ROTATEDRECTD28*%

G04:AMPARAMS|DCode=29|XSize=51.31mil|YSize=47.37mil|CornerRadius=0mil|HoleSize=0mil|Usage=FLASHONLY|Rotation=225.000|XOffset=0mil|YOffset=0mil|HoleType=Round|Shape=Rectangle|*
%AMROTATEDRECTD29*
4,1,4,0.00139,0.03489,0.03489,0.00139,-0.00139,-0.03489,-0.03489,-0.00139,0.00139,0.03489,0.0*
%
%ADD29ROTATEDRECTD29*%

%ADD30R,0.10642X0.10642*%
%ADD31R,0.10642X0.04737*%
G04:AMPARAMS|DCode=32|XSize=33mil|YSize=58mil|CornerRadius=0mil|HoleSize=0mil|Usage=FLASHONLY|Rotation=45.000|XOffset=0mil|YOffset=0mil|HoleType=Round|Shape=Rectangle|*
%AMROTATEDRECTD32*
4,1,4,0.00884,-0.03217,-0.03217,0.00884,-0.00884,0.03217,0.03217,-0.00884,0.00884,-0.03217,0.0*
%
%ADD32ROTATEDRECTD32*%

%ADD33R,0.10052X0.10446*%
%ADD34R,0.05524X0.05524*%
%ADD35R,0.13792X0.10249*%
%ADD36R,0.04737X0.10249*%
%ADD37C,0.06706*%
%ADD38R,0.06706X0.06706*%
%ADD39R,0.06706X0.06706*%
%ADD40C,0.05524*%
D18*
X195879Y61136D02*
D03*
X194487Y62528D02*
D03*
X197271Y59744D02*
D03*
X193096Y63919D02*
D03*
X201447Y55568D02*
D03*
X198663Y58352D02*
D03*
X200055Y56960D02*
D03*
X184744Y72271D02*
D03*
X183352Y73663D02*
D03*
X186135Y70879D02*
D03*
X180568Y76447D02*
D03*
X181960Y75055D02*
D03*
X190312Y66703D02*
D03*
X191703Y65312D02*
D03*
X187528Y69487D02*
D03*
X188919Y68096D02*
D03*
X148553Y44432D02*
D03*
X162472Y30513D02*
D03*
X161081Y31904D02*
D03*
X163865Y29120D02*
D03*
X168040Y24945D02*
D03*
X169432Y23553D02*
D03*
X165256Y27729D02*
D03*
X166648Y26337D02*
D03*
X152729Y40256D02*
D03*
X154121Y38864D02*
D03*
X149945Y43040D02*
D03*
X151337Y41648D02*
D03*
X158297Y34688D02*
D03*
X159688Y33297D02*
D03*
X155513Y37472D02*
D03*
X156904Y36081D02*
D03*
D19*
X201447Y44432D02*
D03*
X200055Y43040D02*
D03*
X198663Y41648D02*
D03*
X197271Y40256D02*
D03*
X195879Y38864D02*
D03*
X194487Y37472D02*
D03*
X193096Y36081D02*
D03*
X191703Y34688D02*
D03*
X190312Y33297D02*
D03*
X188919Y31904D02*
D03*
X187528Y30513D02*
D03*
X186135Y29120D02*
D03*
X184744Y27729D02*
D03*
X183352Y26337D02*
D03*
X181960Y24945D02*
D03*
X180568Y23553D02*
D03*
X169432Y76447D02*
D03*
X168040Y75055D02*
D03*
X166648Y73663D02*
D03*
X165256Y72271D02*
D03*
X163865Y70879D02*
D03*
X162472Y69487D02*
D03*
X161081Y68096D02*
D03*
X159688Y66703D02*
D03*
X158297Y65312D02*
D03*
X156904Y63919D02*
D03*
X155513Y62528D02*
D03*
X154121Y61136D02*
D03*
X152729Y59744D02*
D03*
X151337Y58352D02*
D03*
X149945Y56960D02*
D03*
X148553Y55568D02*
D03*
D20*
X18417Y40118D02*
D03*
X18417Y37559D02*
D03*
X18417Y35000D02*
D03*
X18417Y32441D02*
D03*
X18417Y29882D02*
D03*
D21*
X17039Y47205D02*
D03*
Y22795D02*
D03*
D22*
X7000Y49961D02*
D03*
Y20039D02*
D03*
D23*
X50135Y33641D02*
D03*
Y38759D02*
D03*
X58600Y38759D02*
D03*
X58600Y36200D02*
D03*
X58600Y33641D02*
D03*
D24*
X25000Y77709D02*
D03*
Y66291D02*
D03*
X99500Y65291D02*
D03*
Y76709D02*
D03*
D25*
X227300Y53952D02*
D03*
Y60448D02*
D03*
D26*
X274654Y52300D02*
D03*
X281346D02*
D03*
X264654Y83500D02*
D03*
X271346D02*
D03*
X282446Y36400D02*
D03*
X275754D02*
D03*
X34254Y38700D02*
D03*
X40946D02*
D03*
X34254Y33700D02*
D03*
X40946D02*
D03*
X206046Y14300D02*
D03*
X199354D02*
D03*
X205946Y23900D02*
D03*
X199254D02*
D03*
X178046Y15600D02*
D03*
X171354D02*
D03*
X175646Y86300D02*
D03*
X168954D02*
D03*
D27*
X108500Y70654D02*
D03*
Y77346D02*
D03*
X213800Y33354D02*
D03*
Y40046D02*
D03*
X257100Y24746D02*
D03*
Y18054D02*
D03*
X34300Y77846D02*
D03*
Y71154D02*
D03*
X131000Y49846D02*
D03*
Y43154D02*
D03*
X218000Y53854D02*
D03*
Y60546D02*
D03*
X137500Y49846D02*
D03*
Y43154D02*
D03*
D28*
X187966Y81434D02*
D03*
X183234Y86166D02*
D03*
D29*
X208134Y65134D02*
D03*
X212866Y69866D02*
D03*
D30*
X246027Y19200D02*
D03*
D31*
X215515Y14279D02*
D03*
Y24121D02*
D03*
D32*
X118953Y65153D02*
D03*
X121247Y67447D02*
D03*
D33*
X83300Y78427D02*
D03*
Y56773D02*
D03*
D34*
X282500Y43800D02*
D03*
X274232D02*
D03*
X229900Y38700D02*
D03*
D35*
X53400Y55183D02*
D03*
D36*
X44345Y78017D02*
D03*
X53400Y78017D02*
D03*
X62455Y78017D02*
D03*
D37*
X10000Y5000D02*
D03*
X20000D02*
D03*
X30000D02*
D03*
X40000D02*
D03*
X50000D02*
D03*
X60000D02*
D03*
X70000D02*
D03*
X80000D02*
D03*
X90000D02*
D03*
X100000D02*
D03*
X110000D02*
D03*
X120000D02*
D03*
X130000D02*
D03*
X280000D02*
D03*
X270000D02*
D03*
X260000D02*
D03*
X250000D02*
D03*
X240000D02*
D03*
X230000D02*
D03*
X220000D02*
D03*
X210000D02*
D03*
X200000D02*
D03*
X190000D02*
D03*
X180000D02*
D03*
X170000D02*
D03*
X160000D02*
D03*
X150000D02*
D03*
X140000D02*
D03*
X10000Y95000D02*
D03*
X20000D02*
D03*
X30000D02*
D03*
X40000D02*
D03*
X50000D02*
D03*
X60000D02*
D03*
X70000D02*
D03*
X80000D02*
D03*
X90000D02*
D03*
X100000D02*
D03*
X110000D02*
D03*
X120000D02*
D03*
X130000D02*
D03*
X280000D02*
D03*
X270000D02*
D03*
X260000D02*
D03*
X250000D02*
D03*
X240000D02*
D03*
X230000D02*
D03*
X220000D02*
D03*
X210000D02*
D03*
X200000D02*
D03*
X190000D02*
D03*
X180000D02*
D03*
X170000D02*
D03*
X160000D02*
D03*
X150000D02*
D03*
X140000D02*
D03*
X11000Y77500D02*
D03*
X274700Y73000D02*
D03*
Y63000D02*
D03*
X264700Y73000D02*
D03*
X101200Y28900D02*
D03*
X111200D02*
D03*
D38*
X290000Y5000D02*
D03*
Y95000D02*
D03*
X264700Y63000D02*
D03*
X91200Y28900D02*
D03*
D39*
X11000Y67500D02*
D03*
D40*
X249191Y38700D02*
D03*
M02*
