G04*
G04 #@! TF.GenerationSoftware,Altium Limited,Altium Designer,19.1.9 (167)*
G04*
G04 Layer_Physical_Order=2*
G04 Layer_Color=16711680*
%FSLAX25Y25*%
%MOIN*%
G70*
G01*
G75*
%ADD16C,0.01000*%
%ADD57R,0.04724X0.04724*%
%ADD61C,0.01500*%
%ADD62C,0.03500*%
%ADD63C,0.02000*%
%ADD64C,0.02500*%
%ADD68C,0.05906*%
%ADD69R,0.05906X0.05906*%
%ADD70R,0.05906X0.05906*%
%ADD71C,0.04724*%
%ADD72C,0.02700*%
G36*
X286047Y95500D02*
X290000D01*
Y95000D01*
X290500D01*
Y91047D01*
X292961D01*
Y8953D01*
X290500D01*
Y5000D01*
X290000D01*
Y4500D01*
X286047D01*
Y2039D01*
X283341D01*
X283094Y2539D01*
X283453Y3007D01*
X283851Y3968D01*
X283921Y4500D01*
X280000D01*
Y5000D01*
X279500D01*
Y8921D01*
X278968Y8851D01*
X278007Y8453D01*
X277500Y8064D01*
X277000Y8311D01*
Y10750D01*
X236413D01*
X236181Y10981D01*
X235685Y11313D01*
X235100Y11429D01*
X229433D01*
X226881Y13981D01*
X226385Y14313D01*
X225800Y14429D01*
X219634D01*
X213329Y20733D01*
Y40000D01*
X213213Y40585D01*
X212881Y41081D01*
X204681Y49281D01*
X204185Y49613D01*
X203600Y49729D01*
X187200D01*
X186615Y49613D01*
X186119Y49281D01*
X184279Y47442D01*
X184037Y47467D01*
X183852Y47989D01*
X189333Y53471D01*
X258000D01*
X258585Y53587D01*
X259081Y53919D01*
X261834Y56671D01*
X270600D01*
X271185Y56787D01*
X271681Y57119D01*
X273707Y59144D01*
X274700Y59013D01*
X275732Y59149D01*
X276693Y59547D01*
X277519Y60181D01*
X278153Y61007D01*
X278551Y61968D01*
X278687Y63000D01*
X278551Y64032D01*
X278153Y64993D01*
X277519Y65819D01*
X276693Y66453D01*
X275732Y66851D01*
X274700Y66987D01*
X273668Y66851D01*
X272707Y66453D01*
X271881Y65819D01*
X271247Y64993D01*
X270849Y64032D01*
X270713Y63000D01*
X270849Y61968D01*
X271246Y61009D01*
X269967Y59729D01*
X268653D01*
Y66953D01*
X261523D01*
X261316Y67453D01*
X263204Y69341D01*
X263668Y69149D01*
X264700Y69013D01*
X265732Y69149D01*
X266693Y69547D01*
X267519Y70181D01*
X268153Y71007D01*
X268551Y71968D01*
X268687Y73000D01*
X268551Y74032D01*
X268153Y74993D01*
X267519Y75819D01*
X266693Y76453D01*
X265732Y76851D01*
X264700Y76987D01*
X263668Y76851D01*
X262707Y76453D01*
X261881Y75819D01*
X261247Y74993D01*
X260849Y74032D01*
X260713Y73000D01*
X260849Y71968D01*
X261041Y71504D01*
X258419Y68881D01*
X258087Y68385D01*
X257971Y67800D01*
Y60133D01*
X256666Y58829D01*
X204506D01*
X204315Y59291D01*
X205159Y60136D01*
X205917Y60286D01*
X206694Y60806D01*
X207214Y61583D01*
X207364Y62341D01*
X207539Y62516D01*
X225741D01*
X226383Y62086D01*
X227300Y61904D01*
X228217Y62086D01*
X228994Y62606D01*
X229514Y63383D01*
X229696Y64300D01*
X229514Y65217D01*
X228994Y65994D01*
X228217Y66514D01*
X227300Y66696D01*
X226383Y66514D01*
X225741Y66084D01*
X206800D01*
X206117Y65948D01*
X205538Y65562D01*
X205538Y65562D01*
X204841Y64864D01*
X204083Y64714D01*
X203306Y64194D01*
X202786Y63417D01*
X202636Y62659D01*
X201261Y61284D01*
X186400D01*
X185717Y61149D01*
X185138Y60762D01*
X176201Y51824D01*
X175917Y52014D01*
X175000Y52196D01*
X174083Y52014D01*
X173306Y51494D01*
X172786Y50717D01*
X172604Y49800D01*
X172786Y48883D01*
X173306Y48106D01*
X173570Y47929D01*
X173418Y47429D01*
X171000D01*
X170415Y47313D01*
X169919Y46981D01*
X166619Y43681D01*
X166287Y43185D01*
X166171Y42600D01*
Y39400D01*
X166287Y38815D01*
X166619Y38319D01*
X168519Y36419D01*
X169015Y36087D01*
X169600Y35971D01*
X176610D01*
X176786Y35083D01*
X177306Y34306D01*
X178083Y33786D01*
X179000Y33604D01*
X179194Y33643D01*
X179419Y33419D01*
X179915Y33087D01*
X180500Y32971D01*
X194500D01*
X195085Y33087D01*
X195581Y33419D01*
X198033Y35871D01*
X200666D01*
X201071Y35467D01*
Y10750D01*
X33200Y10750D01*
Y8083D01*
X32700Y7911D01*
X31993Y8453D01*
X31032Y8851D01*
X30500Y8921D01*
Y5000D01*
X30000D01*
Y4500D01*
X26079D01*
X26149Y3968D01*
X26547Y3007D01*
X26906Y2539D01*
X26659Y2039D01*
X23341D01*
X23094Y2539D01*
X23453Y3007D01*
X23851Y3968D01*
X23921Y4500D01*
X20000D01*
X16079D01*
X16149Y3968D01*
X16547Y3007D01*
X16906Y2539D01*
X16659Y2039D01*
X13341D01*
X13094Y2539D01*
X13453Y3007D01*
X13851Y3968D01*
X13921Y4500D01*
X10000D01*
X6079D01*
X6149Y3968D01*
X6547Y3007D01*
X6906Y2539D01*
X6659Y2039D01*
X2039D01*
Y89250D01*
X73587D01*
X74119Y88719D01*
X74615Y88387D01*
X75200Y88271D01*
X168067D01*
X170071Y86266D01*
Y81704D01*
X169906Y81594D01*
X169386Y80817D01*
X169204Y79900D01*
X169386Y78983D01*
X169906Y78206D01*
X170683Y77686D01*
X171600Y77504D01*
X172517Y77686D01*
X173294Y78206D01*
X173814Y78983D01*
X173996Y79900D01*
X173814Y80817D01*
X173294Y81594D01*
X173129Y81704D01*
Y86900D01*
X173013Y87485D01*
X172681Y87981D01*
X171875Y88788D01*
X172066Y89250D01*
X173487D01*
X176721Y86016D01*
Y70365D01*
X176556Y70255D01*
X176036Y69478D01*
X175854Y68561D01*
X176036Y67644D01*
X176556Y66867D01*
X177333Y66347D01*
X178250Y66165D01*
X179167Y66347D01*
X179944Y66867D01*
X180464Y67644D01*
X180646Y68561D01*
X180464Y69478D01*
X179944Y70255D01*
X179779Y70365D01*
Y86650D01*
X179663Y87235D01*
X179331Y87731D01*
X178275Y88788D01*
X178466Y89250D01*
X282293D01*
X284500Y91457D01*
Y97961D01*
X286047D01*
Y95500D01*
D02*
G37*
%LPC*%
G36*
X289500Y94500D02*
X286047D01*
Y91047D01*
X289500D01*
Y94500D01*
D02*
G37*
G36*
X11000Y81487D02*
X9968Y81351D01*
X9007Y80953D01*
X8181Y80319D01*
X7547Y79493D01*
X7149Y78532D01*
X7013Y77500D01*
X7149Y76468D01*
X7547Y75507D01*
X8181Y74681D01*
X9007Y74047D01*
X9968Y73649D01*
X11000Y73513D01*
X12032Y73649D01*
X12993Y74047D01*
X13819Y74681D01*
X14453Y75507D01*
X14851Y76468D01*
X14987Y77500D01*
X14851Y78532D01*
X14453Y79493D01*
X13819Y80319D01*
X12993Y80953D01*
X12032Y81351D01*
X11000Y81487D01*
D02*
G37*
G36*
X275200Y76921D02*
Y73500D01*
X278621D01*
X278551Y74032D01*
X278153Y74993D01*
X277519Y75819D01*
X276693Y76453D01*
X275732Y76851D01*
X275200Y76921D01*
D02*
G37*
G36*
X274200D02*
X273668Y76851D01*
X272707Y76453D01*
X271881Y75819D01*
X271247Y74993D01*
X270849Y74032D01*
X270779Y73500D01*
X274200D01*
Y76921D01*
D02*
G37*
G36*
X278621Y72500D02*
X275200D01*
Y69079D01*
X275732Y69149D01*
X276693Y69547D01*
X277519Y70181D01*
X278153Y71007D01*
X278551Y71968D01*
X278621Y72500D01*
D02*
G37*
G36*
X274200D02*
X270779D01*
X270849Y71968D01*
X271247Y71007D01*
X271881Y70181D01*
X272707Y69547D01*
X273668Y69149D01*
X274200Y69079D01*
Y72500D01*
D02*
G37*
G36*
X14953Y71453D02*
X7047D01*
Y63547D01*
X14953D01*
Y71453D01*
D02*
G37*
G36*
X93300Y72584D02*
X92617Y72448D01*
X92038Y72062D01*
X85841Y65864D01*
X85083Y65714D01*
X84440Y65284D01*
X82060D01*
X81417Y65714D01*
X80500Y65896D01*
X79583Y65714D01*
X78806Y65194D01*
X78286Y64417D01*
X78104Y63500D01*
X78286Y62583D01*
X78806Y61806D01*
X79583Y61286D01*
X80500Y61104D01*
X81417Y61286D01*
X82060Y61716D01*
X84440D01*
X85083Y61286D01*
X86000Y61104D01*
X86917Y61286D01*
X87694Y61806D01*
X88214Y62583D01*
X88364Y63341D01*
X94039Y69016D01*
X148761D01*
X158016Y59761D01*
Y51784D01*
X156959D01*
X156317Y52214D01*
X155400Y52396D01*
X154483Y52214D01*
X153706Y51694D01*
X153186Y50917D01*
X153004Y50000D01*
X153186Y49083D01*
X153706Y48306D01*
X154483Y47786D01*
X155400Y47604D01*
X156317Y47786D01*
X156959Y48216D01*
X158440D01*
X159083Y47786D01*
X160000Y47604D01*
X160917Y47786D01*
X161694Y48306D01*
X162214Y49083D01*
X162396Y50000D01*
X162214Y50917D01*
X161694Y51694D01*
X161584Y51768D01*
Y60500D01*
X161584Y60500D01*
X161449Y61183D01*
X161062Y61762D01*
X150762Y72062D01*
X150183Y72448D01*
X149500Y72584D01*
X93300D01*
X93300Y72584D01*
D02*
G37*
G36*
X233262Y42062D02*
X226538D01*
Y35338D01*
X233262D01*
Y42062D01*
D02*
G37*
G36*
X249191Y42091D02*
X248314Y41976D01*
X247496Y41637D01*
X246793Y41098D01*
X246254Y40396D01*
X245916Y39578D01*
X245800Y38700D01*
X245916Y37822D01*
X246254Y37004D01*
X246793Y36302D01*
X247496Y35763D01*
X248314Y35424D01*
X249191Y35309D01*
X250069Y35424D01*
X250887Y35763D01*
X251589Y36302D01*
X252128Y37004D01*
X252467Y37822D01*
X252583Y38700D01*
X252467Y39578D01*
X252128Y40396D01*
X251589Y41098D01*
X250887Y41637D01*
X250069Y41976D01*
X249191Y42091D01*
D02*
G37*
G36*
X28637Y48196D02*
X27721Y48014D01*
X26943Y47494D01*
X26833Y47329D01*
X16700D01*
X16115Y47213D01*
X15619Y46881D01*
X11319Y42581D01*
X10987Y42085D01*
X10871Y41500D01*
Y34204D01*
X10706Y34094D01*
X10186Y33317D01*
X10004Y32400D01*
X10186Y31483D01*
X10706Y30706D01*
X11483Y30186D01*
X12400Y30004D01*
X13317Y30186D01*
X14094Y30706D01*
X14614Y31483D01*
X14796Y32400D01*
X14614Y33317D01*
X14094Y34094D01*
X13929Y34204D01*
Y40867D01*
X17334Y44271D01*
X22168D01*
X22319Y43771D01*
X21906Y43494D01*
X21386Y42717D01*
X21204Y41800D01*
X21386Y40883D01*
X21906Y40106D01*
X22683Y39586D01*
X23600Y39404D01*
X24517Y39586D01*
X25294Y40106D01*
X25814Y40883D01*
X25931Y41471D01*
X44967D01*
X48418Y38019D01*
X48406Y37894D01*
X47886Y37117D01*
X47704Y36200D01*
X47886Y35283D01*
X48406Y34506D01*
X49183Y33986D01*
X50100Y33804D01*
X51017Y33986D01*
X51794Y34506D01*
X52314Y35283D01*
X52496Y36200D01*
X52314Y37117D01*
X51794Y37894D01*
X51629Y38004D01*
Y38500D01*
X51513Y39085D01*
X51181Y39581D01*
X46681Y44081D01*
X46185Y44413D01*
X45600Y44529D01*
X31170D01*
X30880Y45029D01*
X31034Y45800D01*
X30851Y46717D01*
X30332Y47494D01*
X29554Y48014D01*
X28637Y48196D01*
D02*
G37*
G36*
X95153Y32853D02*
X91700D01*
Y29400D01*
X95153D01*
Y32853D01*
D02*
G37*
G36*
X90700D02*
X87247D01*
Y29400D01*
X90700D01*
Y32853D01*
D02*
G37*
G36*
X95153Y28400D02*
X91700D01*
Y24947D01*
X95153D01*
Y28400D01*
D02*
G37*
G36*
X90700D02*
X87247D01*
Y24947D01*
X90700D01*
Y28400D01*
D02*
G37*
G36*
X111200Y32887D02*
X110168Y32751D01*
X109207Y32353D01*
X108381Y31719D01*
X107747Y30893D01*
X107349Y29932D01*
X107213Y28900D01*
X107349Y27868D01*
X107747Y26907D01*
X108381Y26081D01*
X109207Y25447D01*
X110168Y25049D01*
X111200Y24913D01*
X112232Y25049D01*
X113193Y25447D01*
X114019Y26081D01*
X114653Y26907D01*
X115051Y27868D01*
X115187Y28900D01*
X115051Y29932D01*
X114653Y30893D01*
X114019Y31719D01*
X113193Y32353D01*
X112232Y32751D01*
X111200Y32887D01*
D02*
G37*
G36*
X101200D02*
X100168Y32751D01*
X99207Y32353D01*
X98381Y31719D01*
X97747Y30893D01*
X97349Y29932D01*
X97213Y28900D01*
X97349Y27868D01*
X97747Y26907D01*
X98381Y26081D01*
X99207Y25447D01*
X100168Y25049D01*
X101200Y24913D01*
X102232Y25049D01*
X103193Y25447D01*
X104019Y26081D01*
X104653Y26907D01*
X105051Y27868D01*
X105187Y28900D01*
X105051Y29932D01*
X104653Y30893D01*
X104019Y31719D01*
X103193Y32353D01*
X102232Y32751D01*
X101200Y32887D01*
D02*
G37*
G36*
X20500Y8921D02*
Y5500D01*
X23921D01*
X23851Y6032D01*
X23453Y6993D01*
X22819Y7819D01*
X21993Y8453D01*
X21032Y8851D01*
X20500Y8921D01*
D02*
G37*
G36*
X280500D02*
Y5500D01*
X283921D01*
X283851Y6032D01*
X283453Y6993D01*
X282819Y7819D01*
X281993Y8453D01*
X281032Y8851D01*
X280500Y8921D01*
D02*
G37*
G36*
X10500D02*
Y5500D01*
X13921D01*
X13851Y6032D01*
X13453Y6993D01*
X12819Y7819D01*
X11993Y8453D01*
X11032Y8851D01*
X10500Y8921D01*
D02*
G37*
G36*
X19500D02*
X18968Y8851D01*
X18007Y8453D01*
X17181Y7819D01*
X16547Y6993D01*
X16149Y6032D01*
X16079Y5500D01*
X19500D01*
Y8921D01*
D02*
G37*
G36*
X29500D02*
X28968Y8851D01*
X28007Y8453D01*
X27181Y7819D01*
X26547Y6993D01*
X26149Y6032D01*
X26079Y5500D01*
X29500D01*
Y8921D01*
D02*
G37*
G36*
X9500D02*
X8968Y8851D01*
X8007Y8453D01*
X7181Y7819D01*
X6547Y6993D01*
X6149Y6032D01*
X6079Y5500D01*
X9500D01*
Y8921D01*
D02*
G37*
G36*
X289500Y8953D02*
X286047D01*
Y5500D01*
X289500D01*
Y8953D01*
D02*
G37*
%LPD*%
D16*
X259500Y67800D02*
X264700Y73000D01*
X259500Y59500D02*
Y67800D01*
X257300Y57300D02*
X259500Y59500D01*
X187800Y57300D02*
X257300D01*
X273701Y61301D02*
Y63700D01*
X261200Y58200D02*
X270600D01*
X258000Y55000D02*
X261200Y58200D01*
X188700Y55000D02*
X258000D01*
X207300Y17700D02*
Y38150D01*
Y17700D02*
X220000Y5000D01*
X201950Y43500D02*
X207300Y38150D01*
X70000Y95000D02*
X75200Y89800D01*
X168700D01*
X171600Y86900D01*
Y79900D02*
Y86900D01*
X12400Y41500D02*
X16700Y45800D01*
X12400Y32400D02*
Y41500D01*
X16700Y45800D02*
X28637D01*
X50100Y36200D02*
Y38500D01*
X45600Y43000D02*
X50100Y38500D01*
X24800Y43000D02*
X45600D01*
X23600Y41800D02*
X24800Y43000D01*
X211800Y20100D02*
Y40000D01*
X203600Y48200D02*
X211800Y40000D01*
X187200Y48200D02*
X203600D01*
X202400Y46200D02*
X209600Y39000D01*
Y18800D02*
Y39000D01*
Y18800D02*
X217800Y10600D01*
X211800Y20100D02*
X219000Y12900D01*
X225800D02*
X228800Y9900D01*
X219000Y12900D02*
X225800D01*
X217800Y10600D02*
X224400D01*
X235100Y9900D02*
X240000Y5000D01*
X228800Y9900D02*
X235100D01*
X224400Y10600D02*
X230000Y5000D01*
X188900Y46200D02*
X202400D01*
X205100Y9900D02*
Y36900D01*
Y9900D02*
X210000Y5000D01*
X202100Y39900D02*
X205100Y36900D01*
X195700Y39900D02*
X202100D01*
X193300Y37500D02*
X195700Y39900D01*
X183000Y37500D02*
X193300D01*
X200000Y5269D02*
X202600Y7869D01*
X200000Y5000D02*
Y5269D01*
X202600Y7869D02*
Y36100D01*
X201300Y37400D02*
X202600Y36100D01*
X197400Y37400D02*
X201300D01*
X194500Y34500D02*
X197400Y37400D01*
X180500Y34500D02*
X194500D01*
X179000Y36000D02*
X180500Y34500D01*
X171000Y45900D02*
X176400D01*
X167700Y42600D02*
X171000Y45900D01*
X167700Y39400D02*
Y42600D01*
X176400Y45900D02*
X187800Y57300D01*
X167700Y39400D02*
X169600Y37500D01*
X177500D01*
X179000Y36000D01*
X170700Y41200D02*
Y41400D01*
X173000Y43700D01*
X177400D02*
X188700Y55000D01*
X173000Y43700D02*
X177400D01*
X230000Y5000D02*
Y6400D01*
X170000Y94900D02*
X178250Y86650D01*
X184365Y41665D02*
X188900Y46200D01*
X191200Y43500D02*
X201950D01*
X182665Y41665D02*
X184365D01*
X182500Y41500D02*
X182665Y41665D01*
X184000Y45000D02*
X187200Y48200D01*
X184000Y44900D02*
Y45000D01*
X195400Y30600D02*
X199300Y34500D01*
X195400Y24000D02*
Y30600D01*
Y14300D02*
Y24000D01*
X273701Y63700D02*
X274600D01*
X178250Y68561D02*
Y86650D01*
X270600Y58200D02*
X273701Y61301D01*
D57*
X229900Y38700D02*
D03*
D61*
X182400Y62000D02*
X193400Y73000D01*
X170100Y52400D02*
Y62000D01*
X182400D01*
X165100Y41400D02*
Y47400D01*
X91200Y34100D02*
X95800Y38700D01*
X99100D02*
X131000D01*
X95800D02*
X99100D01*
X80500Y63500D02*
X86000D01*
X149500Y70800D02*
X159800Y60500D01*
Y50200D02*
Y60500D01*
Y50200D02*
X160000Y50000D01*
X93300Y70800D02*
X149500D01*
X86000Y63500D02*
X93300Y70800D01*
X155600Y50000D02*
X160000D01*
X155600D02*
X155800Y49800D01*
X155400Y50000D02*
X155600D01*
X91200Y28900D02*
Y34100D01*
X156500Y38700D02*
X159200Y41400D01*
X137600Y38700D02*
X156500D01*
X165100Y17800D02*
Y41400D01*
X159200D02*
X165100D01*
X178500Y24000D02*
X195400D01*
X172000Y30500D02*
X178500Y24000D01*
X172000Y20100D02*
Y30500D01*
X167400Y15500D02*
X172000Y20100D01*
X165100Y17800D02*
X167400Y15500D01*
X165100Y47400D02*
X170100Y52400D01*
X196500Y73000D02*
X216000D01*
X193400D02*
X196500D01*
X180400Y89100D02*
X196500Y73000D01*
X164800Y67300D02*
X170100Y62000D01*
X164800Y67300D02*
Y86400D01*
X202000Y59500D02*
X205000Y62500D01*
X186400Y59500D02*
X202000D01*
X176700Y49800D02*
X186400Y59500D01*
X175100Y49800D02*
X176700D01*
X160000Y50000D02*
X160200Y49800D01*
X205000Y62500D02*
X206800Y64300D01*
X227300D01*
D62*
X280000Y10000D02*
Y13200D01*
Y5000D02*
Y10000D01*
X60000Y87200D02*
X69000Y78200D01*
X20000Y5000D02*
Y17000D01*
X291000Y6000D02*
Y13200D01*
X290000Y5000D02*
X291000Y6000D01*
X10000Y5000D02*
Y20000D01*
X10500Y20500D01*
X30000Y13000D02*
X30100Y13100D01*
X30000Y5000D02*
Y13000D01*
X20000Y17000D02*
X20500Y17500D01*
X10000Y5000D02*
X20000D01*
X4000D02*
X10000D01*
X20000D02*
X30000D01*
X280000D02*
X290000D01*
X60000Y87200D02*
Y95000D01*
X69000Y78100D02*
X73300D01*
X290000Y90800D02*
Y95000D01*
D63*
X228000Y85000D02*
X284200D01*
X283600Y20600D02*
X291000Y13200D01*
X281000Y73000D02*
X284500Y76500D01*
X274700Y73000D02*
X281000D01*
X216000D02*
X228000Y85000D01*
X284200D02*
X290000Y90800D01*
D64*
X280000Y10000D02*
X283200D01*
X275000D02*
X280000D01*
X29800Y66046D02*
X30154Y66400D01*
X29800Y54300D02*
Y66046D01*
Y54300D02*
X36800Y47300D01*
X280000Y13200D02*
X283200Y10000D01*
X54300Y47300D02*
X55000Y46600D01*
X36800Y47300D02*
X54300D01*
X30154Y66400D02*
X30254Y66500D01*
X34400D01*
X55000Y40100D02*
Y46600D01*
Y40100D02*
X55100Y40000D01*
X42400Y78100D02*
X69000D01*
X34400Y70100D02*
X42400Y78100D01*
X34400Y66500D02*
Y70100D01*
X30100Y66400D02*
X30154D01*
X55100Y36200D02*
Y40000D01*
D68*
X10000Y5000D02*
D03*
X20000D02*
D03*
X30000D02*
D03*
X40000D02*
D03*
X50000D02*
D03*
X60000D02*
D03*
X70000D02*
D03*
X80000D02*
D03*
X90000D02*
D03*
X100000D02*
D03*
X110000D02*
D03*
X120000D02*
D03*
X130000D02*
D03*
X280000D02*
D03*
X270000D02*
D03*
X260000D02*
D03*
X250000D02*
D03*
X240000D02*
D03*
X230000D02*
D03*
X220000D02*
D03*
X210000D02*
D03*
X200000D02*
D03*
X190000D02*
D03*
X180000D02*
D03*
X170000D02*
D03*
X160000D02*
D03*
X150000D02*
D03*
X140000D02*
D03*
X10000Y95000D02*
D03*
X20000D02*
D03*
X30000D02*
D03*
X40000D02*
D03*
X50000D02*
D03*
X60000D02*
D03*
X70000D02*
D03*
X80000D02*
D03*
X90000D02*
D03*
X100000D02*
D03*
X110000D02*
D03*
X120000D02*
D03*
X130000D02*
D03*
X280000D02*
D03*
X270000D02*
D03*
X260000D02*
D03*
X250000D02*
D03*
X240000D02*
D03*
X230000D02*
D03*
X220000D02*
D03*
X210000D02*
D03*
X200000D02*
D03*
X190000D02*
D03*
X180000D02*
D03*
X170000D02*
D03*
X160000D02*
D03*
X150000D02*
D03*
X140000D02*
D03*
X11000Y77500D02*
D03*
X274700Y73000D02*
D03*
Y63000D02*
D03*
X264700Y73000D02*
D03*
X101200Y28900D02*
D03*
X111200D02*
D03*
D69*
X290000Y5000D02*
D03*
Y95000D02*
D03*
X264700Y63000D02*
D03*
X91200Y28900D02*
D03*
D70*
X11000Y67500D02*
D03*
D71*
X249191Y38700D02*
D03*
D72*
X29000Y58000D02*
D03*
X32000Y53500D02*
D03*
X34000Y59500D02*
D03*
X74000Y86000D02*
D03*
X64500Y87000D02*
D03*
X69000Y83000D02*
D03*
X58600Y87100D02*
D03*
X45100Y86100D02*
D03*
X240600Y69100D02*
D03*
X254500Y82000D02*
D03*
X246000Y78500D02*
D03*
X42600Y28600D02*
D03*
X20100Y66100D02*
D03*
X25100Y60600D02*
D03*
X61600Y27600D02*
D03*
X49100Y14600D02*
D03*
X30100Y13100D02*
D03*
X31600Y20100D02*
D03*
X15600Y10100D02*
D03*
X23100Y15100D02*
D03*
X25100Y23600D02*
D03*
X6600Y57600D02*
D03*
X93000Y56500D02*
D03*
X93100Y62600D02*
D03*
X104600Y59600D02*
D03*
X71100Y40100D02*
D03*
X82100D02*
D03*
X111100Y63100D02*
D03*
X144000Y53500D02*
D03*
X144100Y45600D02*
D03*
X115100Y35600D02*
D03*
X124100Y36100D02*
D03*
X119100Y40600D02*
D03*
X124100Y45100D02*
D03*
X105600Y37600D02*
D03*
X99100Y40600D02*
D03*
X94600Y36100D02*
D03*
X79100Y31600D02*
D03*
X78100Y22600D02*
D03*
X68600Y31100D02*
D03*
X50600Y25100D02*
D03*
X60100Y21100D02*
D03*
X68100Y25100D02*
D03*
X236100Y19600D02*
D03*
X232000Y74000D02*
D03*
X283600Y20600D02*
D03*
X277100Y16100D02*
D03*
X243600Y27100D02*
D03*
X248600Y31100D02*
D03*
X237100Y33100D02*
D03*
X238600Y38600D02*
D03*
X230600Y32100D02*
D03*
X237500Y13500D02*
D03*
X230100Y15600D02*
D03*
X228100Y22600D02*
D03*
X221600Y19100D02*
D03*
X163600Y13100D02*
D03*
X175600Y23100D02*
D03*
X178560Y29545D02*
D03*
X164100Y46100D02*
D03*
X179100Y60600D02*
D03*
X184600Y65100D02*
D03*
X171600Y58600D02*
D03*
X167600Y53600D02*
D03*
X167100Y60100D02*
D03*
X171600Y66100D02*
D03*
X131600Y77100D02*
D03*
X122600Y78100D02*
D03*
X114600D02*
D03*
X93100Y82600D02*
D03*
X38600Y85100D02*
D03*
X28600Y86100D02*
D03*
X19100Y84600D02*
D03*
X275800Y32400D02*
D03*
X155400Y50000D02*
D03*
X80500Y63500D02*
D03*
X86000D02*
D03*
X171600Y79900D02*
D03*
X12400Y32400D02*
D03*
X28637Y45800D02*
D03*
X83400Y86100D02*
D03*
X99600Y81900D02*
D03*
X108400Y81400D02*
D03*
X34400Y66500D02*
D03*
X30100Y66400D02*
D03*
X23600Y41800D02*
D03*
X55100Y36200D02*
D03*
X50100D02*
D03*
X217600Y40100D02*
D03*
X227300Y64300D02*
D03*
X170700Y41200D02*
D03*
X221800Y60500D02*
D03*
X164800Y86400D02*
D03*
X180400Y89100D02*
D03*
X159200Y41400D02*
D03*
X167400Y15500D02*
D03*
X184000Y44900D02*
D03*
X199300Y34500D02*
D03*
X195400Y24000D02*
D03*
Y14300D02*
D03*
X216000Y73000D02*
D03*
X175000Y49800D02*
D03*
X172000Y30500D02*
D03*
X196250Y51750D02*
D03*
X191200Y43500D02*
D03*
X137600Y38700D02*
D03*
X282000Y84500D02*
D03*
X248500Y68000D02*
D03*
X205000Y62500D02*
D03*
X100500Y50000D02*
D03*
X160000D02*
D03*
X179000Y36000D02*
D03*
X182500Y41500D02*
D03*
X183000Y37500D02*
D03*
X118000Y59000D02*
D03*
X178250Y68561D02*
D03*
X276500Y23000D02*
D03*
X284500Y76500D02*
D03*
X113500Y54500D02*
D03*
X108500Y50000D02*
D03*
X34700Y28400D02*
D03*
X85300Y71100D02*
D03*
X131000Y38700D02*
D03*
X69000Y78100D02*
D03*
X7000Y36000D02*
D03*
X80800Y71100D02*
D03*
X7000Y26000D02*
D03*
X233500Y25000D02*
D03*
X284500Y67000D02*
D03*
Y58500D02*
D03*
X263500Y46000D02*
D03*
X259000Y50500D02*
D03*
X268000Y41000D02*
D03*
X223500Y75000D02*
D03*
X233000Y67000D02*
D03*
X255000Y68000D02*
D03*
X203500Y87000D02*
D03*
X42400Y23500D02*
D03*
X73300Y78100D02*
D03*
X7000Y44300D02*
D03*
M02*
